{
  "accessors": [
    {
      "bufferView": 2,
      "componentType": 5126,
      "count": 2998,
      "max": [
        2.4417076110839844,
        6.394224166870117,
        273.4739685058594
      ],
      "min": [
        -86.48455810546875,
        -131.78343200683594,
        -103.40467834472656
      ],
      "type": "VEC3"
    },
    {
      "bufferView": 2,
      "byteOffset": 35976,
      "componentType": 5126,
      "count": 2998,
      "max": [
        1.0,
        1.0,
        1.0
      ],
      "min": [
        -1.0,
        -1.0,
        -1.0
      ],
      "type": "VEC3"
    },
    {
      "bufferView": 1,
      "componentType": 5126,
      "count": 2998,
      "max": [
        0.9884125590324402,
        0.990234375
      ],
      "min": [
        0.15793265402317047,
        0.00976562686264515
      ],
      "type": "VEC2"
    },
    {
      "bufferView": 0,
      "componentType": 5125,
      "count": 14142,
      "type": "SCALAR"
    },
    {
      "bufferView": 2,
      "byteOffset": 71952,
      "componentType": 5126,
      "count": 113,
      "max": [
        -0.06998825073242188,
        1.7213470935821533,
        247.489501953125
      ],
      "min": [
        -83.97285461425781,
        0.6628845930099487,
        -101.01734161376953
      ],
      "type": "VEC3"
    },
    {
      "bufferView": 2,
      "byteOffset": 73308,
      "componentType": 5126,
      "count": 113,
      "max": [
        1.0,
        1.0,
        1.0
      ],
      "min": [
        -1.0,
        0.0,
        -1.0
      ],
      "type": "VEC3"
    },
    {
      "bufferView": 1,
      "byteOffset": 23984,
      "componentType": 5126,
      "count": 113,
      "max": [
        0.990234375,
        0.8250753879547119
      ],
      "min": [
        0.00976562686264515,
        0.00976562686264515
      ],
      "type": "VEC2"
    },
    {
      "bufferView": 0,
      "byteOffset": 56568,
      "componentType": 5125,
      "count": 201,
      "type": "SCALAR"
    }
  ],
  "asset": {
    "extras": {
      "author": "Jones Studio (https://sketchfab.com/jonestudio)",
      "license": "CC-BY-4.0 (http://creativecommons.org/licenses/by/4.0/)",
      "source": "https://sketchfab.com/3d-models/stand-mirror-908260e1319b47f5a9ffa60d4a9544f4",
      "title": "Stand mirror"
    },
    "generator": "Sketchfab-14.69.0",
    "version": "2.0"
  },
  "bufferViews": [
    {
      "buffer": 0,
      "byteLength": 57372,
      "name": "floatBufferViews",
      "target": 34963
    },
    {
      "buffer": 0,
      "byteLength": 24888,
      "byteOffset": 57372,
      "byteStride": 8,
      "name": "floatBufferViews",
      "target": 34962
    },
    {
      "buffer": 0,
      "byteLength": 74664,
      "byteOffset": 82260,
      "byteStride": 12,
      "name": "floatBufferViews",
      "target": 34962
    }
  ],
  "buffers": [
    {
      "byteLength": 156924,
      "uri": "scene.bin"
    }
  ],
  "extensionsUsed": [
    "KHR_materials_specular"
  ],
  "materials": [
    {
      "doubleSided": true,
      "name": "white_painnt",
      "pbrMetallicRoughness": {
        "baseColorFactor": [
          0.8,
          0.8,
          0.8,
          1.0
        ],
        "metallicFactor": 0.314961,
        "roughnessFactor": 0.523622
      }
    },
    {
      "doubleSided": true,
      "extensions": {
        "KHR_materials_specular": {
          "specularColorFactor": [
            1.0,
            1.0,
            1.0
          ],
          "specularFactor": 0.7725737830820055
        }
      },
      "name": "mirror",
      "pbrMetallicRoughness": {
        "roughnessFactor": 0.0
      }
    }
  ],
  "meshes": [
    {
      "name": "Object_0",
      "primitives": [
        {
          "attributes": {
            "NORMAL": 1,
            "POSITION": 0,
            "TEXCOORD_0": 2
          },
          "indices": 3,
          "material": 0,
          "mode": 4
        }
      ]
    },
    {
      "name": "Object_1",
      "primitives": [
        {
          "attributes": {
            "NORMAL": 5,
            "POSITION": 4,
            "TEXCOORD_0": 6
          },
          "indices": 7,
          "material": 1,
          "mode": 4
        }
      ]
    }
  ],
  "nodes": [
    {
      "children": [
        1
      ],
      "matrix": [
        1.0,
        0.0,
        0.0,
        0.0,
        0.0,
        2.220446049250313e-16,
        -1.0,
        0.0,
        0.0,
        1.0,
        2.220446049250313e-16,
        0.0,
        0.0,
        0.0,
        0.0,
        1.0
      ],
      "name": "Sketchfab_model"
    },
    {
      "children": [
        2
      ],
      "name": "root"
    },
    {
      "children": [
        3
      ],
      "matrix": [
        1.0,
        0.0,
        0.0,
        0.0,
        0.0,
        2.220446049250313e-16,
        1.0,
        0.0,
        0.0,
        -1.0,
        2.220446049250313e-16,
        0.0,
        0.0,
        0.0,
        0.0,
        1.0
      ],
      "name": "GLTF_SceneRootNode"
    },
    {
      "children": [
        4,
        5
      ],
      "matrix": [
        0.02383708767592907,
        0.0,
        0.0,
        0.0,
        0.0,
        0.004774027998935434,
        0.02335413417653215,
        0.0,
        0.0,
        -0.02335413417653215,
        0.004774027998935434,
        0.0,
        1.0016684532165527,
        1.717371940612793,
        -0.27720868587493896,
        1.0
      ],
      "name": "skru_1"
    },
    {
      "mesh": 0,
      "name": "Object_4"
    },
    {
      "mesh": 1,
      "name": "Object_5"
    }
  ],
  "scene": 0,
  "scenes": [
    {
      "name": "Sketchfab_Scene",
      "nodes": [
        0
      ]
    }
  ]
}
